<svg width="16" height="16" viewBox="0 0 16 16" fill="none" xmlns="http://www.w3.org/2000/svg">
<path d="M1.48598 1.37641C2.36799 0.488 3.53552 -0.00468741 4.7476 3.36172e-05C5.95969 0.00475465 7.12382 0.506524 7.99975 1.40178C8.52672 0.86592 9.16224 0.467128 9.8569 0.236403C10.5516 0.00567889 11.2867 -0.0507627 12.0051 0.0714657H12.0071C12.9638 0.2388 13.85 0.713819 14.5475 1.43317C15.2451 2.15253 15.7208 3.08203 15.9113 4.09772V4.10103C16.0487 4.84543 16.0262 5.61348 15.8455 6.34724C15.6647 7.08101 15.3303 7.76132 14.8676 8.33687L9.39335 15.3073C9.13571 15.6341 8.78457 15.8614 8.39411 15.9538C8.00364 16.0463 7.59554 15.999 7.23276 15.8191C6.99221 15.6995 6.77905 15.5252 6.60822 15.3084L1.13293 8.33576C0.344539 7.34915 -0.0586268 6.07636 0.00689957 4.78089C0.072426 3.48542 0.601626 2.26648 1.48494 1.37641H1.48598ZM4.74596 1.65439C4.13645 1.65108 3.53887 1.83493 3.02432 2.18408C2.50977 2.53322 2.09991 3.03296 1.84349 3.62384C1.58707 4.21472 1.49489 4.87188 1.57792 5.51713C1.66094 6.16238 1.91567 6.76856 2.31181 7.26357L2.31697 7.26908L7.79329 14.2428C7.83175 14.2911 7.88391 14.3247 7.94186 14.3384C7.99981 14.3521 8.06037 14.3453 8.11434 14.3189C8.15013 14.3011 8.18184 14.2751 8.20724 14.2428L13.6908 7.26026C14.0014 6.8749 14.2259 6.41917 14.3475 5.92749C14.4691 5.43581 14.4846 4.92103 14.3927 4.42203C14.264 3.73693 13.9431 3.10997 13.4727 2.62461C13.0022 2.13926 12.4046 1.81853 11.7594 1.70513C11.2754 1.6229 10.7802 1.66136 10.3125 1.81751C9.84472 1.97366 9.4171 2.24326 9.06301 2.60525L9.05579 2.61297C8.76906 2.89807 8.39193 3.05656 8.00027 3.05656C7.60861 3.05656 7.23148 2.89807 6.94475 2.61297L6.93546 2.60414C6.34679 1.99894 5.56283 1.65887 4.74596 1.65439Z" fill="#9B9B9B"/>
</svg>
